<svg xmlns="http://www.w3.org/2000/svg" viewBox="0 0 800 800">
  <defs>
    <linearGradient id="bg-gradient" x1="0%" y1="0%" x2="100%" y2="100%">
      <stop offset="0%" style="stop-color:#f3f4f6"/>
      <stop offset="100%" style="stop-color:#e5e7eb"/>
    </linearGradient>
    <linearGradient id="accent-gradient" x1="0%" y1="0%" x2="100%" y2="100%">
      <stop offset="0%" style="stop-color:#4b5563"/>
      <stop offset="100%" style="stop-color:#374151"/>
    </linearGradient>
  </defs>

  <!-- Background -->
  <rect width="800" height="800" fill="url(#bg-gradient)"/>

  <!-- Abstract Shapes -->
  <g transform="translate(100, 100)">
    <!-- Connected Circles representing collaboration -->
    <circle cx="300" cy="200" r="80" fill="#fff" stroke="url(#accent-gradient)" stroke-width="4"/>
    <circle cx="450" cy="300" r="60" fill="#fff" stroke="url(#accent-gradient)" stroke-width="4"/>
    <circle cx="200" cy="350" r="70" fill="#fff" stroke="url(#accent-gradient)" stroke-width="4"/>

    <!-- Connecting Lines -->
    <path d="M370 230 L420 280" stroke="url(#accent-gradient)" stroke-width="4" fill="none"/>
    <path d="M250 310 L380 320" stroke="url(#accent-gradient)" stroke-width="4" fill="none"/>

    <!-- Abstract Tech Elements -->
    <rect x="280" y="180" width="40" height="40" rx="8" fill="url(#accent-gradient)" opacity="0.8"/>
    <rect x="430" y="280" width="40" height="40" rx="8" fill="url(#accent-gradient)" opacity="0.8"/>
    <rect x="180" y="330" width="40" height="40" rx="8" fill="url(#accent-gradient)" opacity="0.8"/>

    <!-- Decorative Dots -->
    <circle cx="350" cy="150" r="5" fill="url(#accent-gradient)"/>
    <circle cx="500" cy="250" r="5" fill="url(#accent-gradient)"/>
    <circle cx="150" cy="400" r="5" fill="url(#accent-gradient)"/>
  </g>

  <!-- Additional Design Elements -->
  <g transform="translate(50, 50)">
    <path d="M600 500 Q 650 450, 700 500" stroke="url(#accent-gradient)" stroke-width="4" fill="none"/>
    <path d="M100 600 Q 150 550, 200 600" stroke="url(#accent-gradient)" stroke-width="4" fill="none"/>
  </g>
</svg>