<svg xmlns="http://www.w3.org/2000/svg" viewBox="0 0 24 24" fill="none"><path d="M8.851 16.87c0 0-1.242.722.883.968.016.002 4.27-.004 4.27-.004.666.415 2.06.797 2.06.797s-2.344-1.002-2.344-1.002c-3.57.953-8.214.512-4.87-.759" fill="#5382A1"/><path d="M8.276 14.938c0 0-1.395.103.733.887 2.736 1.011 6.083.551 7.471.169 0 0-.823.351-1.838.615-4.472 1.175-9.127.093-6.366-1.671" fill="#5382A1"/><path d="M12.514 11.056c1.359-1.561-.357-2.965-.357-2.965s3.453 1.783-1.868 4.021c-4.521 1.9-1.015 2.984-.001 4.223-2.605-2.353 2.226-4.668 2.226-5.279" fill="#E76F00"/><path d="M19.094 18.349c0 0 .918.755-.101 1.341 0 0-4.434 1.401-10.392.133-1.959-.417 1.02-.99 1.707-1.108.718-.124 1.125-.102 1.125-.102-1.292-.91-8.353 1.789-3.587 2.56 12.927 2.093 23.581-.942 11.248-2.824" fill="#5382A1"/><path d="M9.248 13.017c0 0-5.922 1.407-2.096 1.919.614.155 1.84.12 2.983.029 1.734-.137 3.475-.429 3.475-.429s-.612.262-1.055.564c-4.261 1.121-12.489.599-10.122-.547 2.008-.972 6.815-1.536 6.815-1.536" fill="#5382A1"/><path d="M16.666 15.621c4.327-2.25 2.326-4.411.928-4.117 0 0 .281-.028.812.197 0 0-2.173-1.533-3.735.968-1.348 2.158 2.325 3.306 1.995 2.952" fill="#E76F00"/><path d="M14.401 2s2.394 2.394-2.272 6.068c-3.742 2.947-.853 4.627 0 6.54-2.182-1.969-3.784-3.701-2.71-5.314 1.575-2.367 5.935-3.517 4.982-7.294" fill="#E76F00"/><path d="M9.734 21.195c4.151.266 10.517-.147 10.673-2.103 0 0-.291.742-3.43 1.33-3.54.663-7.904.585-10.489.16 0 0 .53.439 3.246.613" fill="#5382A1"/></svg>