<svg xmlns="http://www.w3.org/2000/svg" viewBox="0 0 24 24" fill="none"><path d="M12 2C11.3 2 10.7 2.2 10.2 2.6C8.1 4.5 6.5 6.9 5.4 9.5C4.3 12.1 3.8 14.9 4 17.7C4.1 19.1 4.4 20.5 5 21.7C5.3 22.3 5.9 22.7 6.5 22.9C7.1 23 7.8 22.9 8.3 22.5C9.2 21.8 9.9 20.9 10.4 19.9C10.9 18.9 11.2 17.8 11.3 16.7C11.4 15.6 11.3 14.5 11 13.4L12 2Z" fill="#00ED64"/><path d="M12 2V13.4C12.3 14.5 12.4 15.6 12.3 16.7C12.2 17.8 11.9 18.9 11.4 19.9C10.9 20.9 10.2 21.8 9.3 22.5C8.8 22.9 8.1 23 7.5 22.9C6.9 22.7 6.3 22.3 6 21.7C7.4 22.5 9 22.8 10.6 22.6C12.2 22.4 13.7 21.7 14.9 20.6C16.1 19.5 17 18 17.4 16.4C17.8 14.8 17.8 13.1 17.3 11.5C16.8 9.9 15.9 8.4 14.7 7.3C13.5 6.2 12 5.5 10.4 5.3C10.9 4.1 11.6 3 12.5 2.1C12.4 2 12.2 2 12 2Z" fill="#00ED64"/></svg>