<svg xmlns="http://www.w3.org/2000/svg" viewBox="0 0 24 24" fill="none"><path d="M16.405 5.501C16.405 5.501 16.785 5.101 17.125 5.021C17.465 4.941 17.505 4.861 17.865 4.741C18.225 4.621 18.945 4.501 19.005 4.501C19.065 4.501 19.225 4.501 19.225 4.701C19.225 4.901 19.005 5.101 18.785 5.261C18.565 5.421 17.905 5.901 17.905 5.901L16.405 5.501Z" fill="#00758F"/><path d="M12 2C6.477 2 2 6.477 2 12C2 17.523 6.477 22 12 22C17.523 22 22 17.523 22 12C22 6.477 17.523 2 12 2ZM13.961 16.5H11.461V7.5H13.961V16.5ZM17.961 16.5H15.461V7.5H17.961V16.5ZM9.961 16.5H7.461V7.5H9.961V16.5Z" fill="#00758F"/></svg>