<svg xmlns="http://www.w3.org/2000/svg" viewBox="0 0 24 24" fill="none"><path d="M17.128 12.927C17.128 10.007 15.362 8.132 12.965 8.132C10.568 8.132 8.802 10.007 8.802 12.927C8.802 15.847 10.568 17.722 12.965 17.722C15.362 17.722 17.128 15.847 17.128 12.927Z" fill="#336791"/><path d="M12.965 19.322C9.424 19.322 6.562 16.46 6.562 12.919C6.562 9.378 9.424 6.516 12.965 6.516C16.506 6.516 19.368 9.378 19.368 12.919C19.368 16.46 16.506 19.322 12.965 19.322ZM12.965 7.516C9.976 7.516 7.562 9.93 7.562 12.919C7.562 15.908 9.976 18.322 12.965 18.322C15.954 18.322 18.368 15.908 18.368 12.919C18.368 9.93 15.954 7.516 12.965 7.516Z" fill="#336791"/><path d="M12.965 22C7.453 22 3 17.547 3 12.035C3 6.523 7.453 2.07 12.965 2.07C18.477 2.07 22.93 6.523 22.93 12.035C22.93 17.547 18.477 22 12.965 22ZM12.965 3.07C8.005 3.07 4 7.075 4 12.035C4 16.995 8.005 21 12.965 21C17.925 21 21.93 16.995 21.93 12.035C21.93 7.075 17.925 3.07 12.965 3.07Z" fill="#336791"/></svg>