<svg xmlns="http://www.w3.org/2000/svg" viewBox="0 0 24 24" fill="none"><path d="M12 2C8.21 2 7 3.21 7 7V9H11C11.55 9 12 9.45 12 10V14C12 14.55 11.55 15 11 15H7V17C7 20.79 8.21 22 12 22C15.79 22 17 20.79 17 17V15H13C12.45 15 12 14.55 12 14V10C12 9.45 12.45 9 13 9H17V7C17 3.21 15.79 2 12 2Z" fill="#3776AB"/><path d="M10 6C10 6.55228 9.55228 7 9 7C8.44772 7 8 6.55228 8 6C8 5.44772 8.44772 5 9 5C9.55228 5 10 5.44772 10 6Z" fill="white"/><path d="M16 18C16 18.5523 15.5523 19 15 19C14.4477 19 14 18.5523 14 18C14 17.4477 14.4477 17 15 17C15.5523 17 16 17.4477 16 18Z" fill="white"/></svg>