<svg xmlns="http://www.w3.org/2000/svg" viewBox="0 0 24 24" fill="none"><path d="M12 13.5C12.8284 13.5 13.5 12.8284 13.5 12C13.5 11.1716 12.8284 10.5 12 10.5C11.1716 10.5 10.5 11.1716 10.5 12C10.5 12.8284 11.1716 13.5 12 13.5Z" fill="#61DAFB"/><path d="M12 21.5C11.4477 21.5 11 21.0523 11 20.5V3.5C11 2.94772 11.4477 2.5 12 2.5C12.5523 2.5 13 2.94772 13 3.5V20.5C13 21.0523 12.5523 21.5 12 21.5Z" fill="#61DAFB"/><path d="M3.51472 16.5C3.07923 16.2071 2.92157 15.6381 3.21447 15.2026L11.7145 2.20256C12.0074 1.76707 12.5764 1.60941 13.0119 1.90231C13.4474 2.19521 13.605 2.76422 13.3121 3.19971L4.81213 16.1997C4.51923 16.6352 3.95022 16.7929 3.51472 16.5Z" fill="#61DAFB"/><path d="M20.4853 16.5C20.0498 16.7929 19.4808 16.6352 19.1879 16.1997L10.6879 3.19971C10.395 2.76422 10.5526 2.19521 10.9881 1.90231C11.4236 1.60941 11.9926 1.76707 12.2855 2.20256L20.7855 15.2026C21.0784 15.6381 20.9208 16.2071 20.4853 16.5Z" fill="#61DAFB"/></svg>