<svg xmlns="http://www.w3.org/2000/svg" viewBox="0 0 24 24" fill="none"><path d="M21.984 16.348C22.056 16.128 21.996 15.889 21.837 15.731L15.235 9.336C15.076 9.178 14.836 9.119 14.616 9.191C14.396 9.263 14.235 9.454 14.206 9.682L12.796 19.039C12.767 19.267 12.878 19.491 13.075 19.607C13.273 19.723 13.519 19.708 13.701 19.569L21.493 13.775C21.675 13.636 21.772 13.409 21.744 13.181L21.984 16.348ZM14.701 16.268L15.541 10.982L19.297 14.607L14.701 16.268Z" fill="#F05138"/><path d="M18.801 11.896C18.93 11.767 18.93 11.557 18.801 11.428L13.301 5.928C13.172 5.799 12.962 5.799 12.833 5.928L7.333 11.428C7.204 11.557 7.204 11.767 7.333 11.896L12.833 17.396C12.962 17.525 13.172 17.525 13.301 17.396L18.801 11.896ZM13.067 16.428L8.301 11.662L13.067 6.896L17.833 11.662L13.067 16.428Z" fill="#F05138"/><path d="M11.984 7.652C12.056 7.432 11.996 7.193 11.837 7.035L5.235 0.64C5.076 0.482 4.836 0.423 4.616 0.495C4.396 0.567 4.235 0.758 4.206 0.986L2.796 10.343C2.767 10.571 2.878 10.795 3.075 10.911C3.273 11.027 3.519 11.012 3.701 10.873L11.493 5.079C11.675 4.94 11.772 4.713 11.744 4.485L11.984 7.652ZM4.701 7.572L5.541 2.286L9.297 5.911L4.701 7.572Z" fill="#F05138"/></svg>